# Blender v2.83.5 OBJ File: 'LowPolyChessPack.blend'
# www.blender.org
mtllib peshka.mtl
v 0.000000 0.000000 -0.300619
v -0.193234 0.000000 -0.230288
v -0.296052 0.000000 -0.052202
v -0.260344 0.000000 0.150310
v -0.102818 0.000000 0.282489
v 0.102818 0.000000 0.282489
v 0.260344 0.000000 0.150309
v 0.296052 0.000000 -0.052202
v 0.193234 0.000000 -0.230287
v -0.000000 0.021993 -0.306959
v -0.197310 0.021993 -0.235145
v -0.302296 0.021993 -0.053303
v -0.265835 0.021993 0.153480
v -0.104986 0.021993 0.288448
v 0.104986 0.021993 0.288448
v 0.265835 0.021993 0.153480
v 0.302296 0.021993 -0.053303
v 0.197310 0.021993 -0.235145
v 0.000000 0.121617 -0.298178
v -0.191665 0.121617 -0.228418
v -0.293648 0.121617 -0.051778
v -0.258230 0.121617 0.149089
v -0.101983 0.121617 0.280196
v 0.101983 0.121617 0.280196
v 0.258230 0.121617 0.149089
v 0.293648 0.121617 -0.051778
v 0.191665 0.121617 -0.228418
v 0.000000 0.143610 -0.298178
v -0.191665 0.143610 -0.228418
v -0.293648 0.143610 -0.051778
v -0.258230 0.143610 0.149089
v -0.101983 0.143610 0.280196
v 0.101983 0.143610 0.280196
v 0.258230 0.143610 0.149089
v 0.293648 0.143610 -0.051778
v 0.191665 0.143610 -0.228418
v 0.093571 0.132613 0.257085
v 0.236931 0.132613 0.136792
v -0.269428 0.132613 -0.047507
v -0.236931 0.132613 0.136792
v 0.269428 0.132613 -0.047507
v -0.093571 0.132613 0.257085
v 0.000000 0.132613 -0.273584
v -0.175856 0.132613 -0.209577
v 0.175856 0.132613 -0.209577
v 0.000000 0.200199 -0.275994
v -0.177405 0.200199 -0.211423
v -0.271801 0.200199 -0.047926
v -0.239018 0.200199 0.137997
v -0.094395 0.200199 0.259349
v 0.094395 0.200199 0.259349
v 0.239018 0.200199 0.137997
v 0.271801 0.200199 -0.047926
v 0.177405 0.200199 -0.211423
v 0.000000 0.272646 -0.173974
v -0.111828 0.272646 -0.133272
v -0.171331 0.272646 -0.030210
v -0.150666 0.272646 0.086987
v -0.059503 0.272646 0.163482
v 0.059503 0.272646 0.163482
v 0.150666 0.272646 0.086987
v 0.171331 0.272646 -0.030210
v 0.111828 0.272646 -0.133272
v 0.000000 0.445248 -0.093667
v -0.060208 0.445248 -0.071753
v -0.092244 0.445248 -0.016265
v -0.081118 0.445248 0.046834
v -0.032036 0.445248 0.088018
v 0.032036 0.445248 0.088018
v 0.081118 0.445248 0.046834
v 0.092244 0.445248 -0.016265
v 0.060208 0.445248 -0.071753
v 0.000000 0.565984 -0.081443
v -0.052351 0.565984 -0.062389
v -0.080206 0.565984 -0.014142
v -0.070532 0.565984 0.040722
v -0.027855 0.565984 0.076532
v 0.027855 0.565984 0.076532
v 0.070532 0.565984 0.040722
v 0.080206 0.565984 -0.014142
v 0.052351 0.565984 -0.062389
v 0.000000 0.599271 -0.074888
v -0.048137 0.599271 -0.057367
v -0.073750 0.599271 -0.013004
v -0.064855 0.599271 0.037444
v -0.025613 0.599271 0.070371
v 0.025613 0.599271 0.070371
v 0.064855 0.599271 0.037444
v 0.073750 0.599271 -0.013004
v 0.048137 0.599271 -0.057367
v 0.000000 0.484921 -0.169383
v 0.000000 0.509689 -0.167217
v -0.107485 0.509689 -0.128096
v -0.108877 0.484921 -0.129755
v 0.166810 0.484921 -0.029413
v 0.164677 0.509689 -0.029037
v 0.107485 0.509689 -0.128096
v 0.108877 0.484921 -0.129755
v -0.057932 0.484921 0.159168
v -0.057192 0.509689 0.157133
v 0.057192 0.509689 0.157133
v 0.057933 0.484921 0.159168
v -0.164676 0.509689 -0.029037
v -0.166810 0.484921 -0.029413
v 0.144814 0.509689 0.083608
v 0.146690 0.484921 0.084692
v -0.144814 0.509689 0.083608
v -0.146690 0.484921 0.084692
v -0.000000 0.540572 -0.000000
v 0.153339 0.657714 0.111406
v -0.058569 0.657714 0.180260
v -0.189539 0.657714 -0.000000
v -0.058569 0.657714 -0.180260
v 0.153339 0.657714 -0.111406
v 0.058569 0.847254 0.180260
v -0.153339 0.847254 0.111406
v -0.153339 0.847254 -0.111406
v 0.058569 0.847254 -0.180260
v 0.189539 0.847254 -0.000000
v -0.000000 0.964395 -0.000000
v -0.112745 0.331746 -0.134364
v -0.172735 0.331746 -0.030458
v 0.112745 0.331746 -0.134364
v 0.000000 0.331746 -0.175399
v 0.059990 0.331746 0.164822
v 0.151900 0.331746 0.087700
v -0.151900 0.331746 0.087700
v 0.172735 0.331746 -0.030458
v -0.059990 0.331746 0.164822
v -0.061526 0.352975 -0.073324
v 0.061526 0.352975 -0.073324
v 0.032737 0.352975 0.089945
v -0.094263 0.352975 -0.016621
v 0.000000 0.352975 -0.095717
v 0.082894 0.352975 0.047859
v -0.082894 0.352975 0.047859
v 0.094263 0.352975 -0.016621
v -0.032737 0.352975 0.089945
vt 0.825521 0.750000
vt 0.825521 0.750000
vt 0.825521 0.750000
vt 0.825521 0.750000
vt 0.825521 0.750000
vt 0.825521 0.750000
vt 0.825521 0.750000
vt 0.825521 0.750000
vt 0.825521 0.750000
vt 0.825521 0.750000
vt 0.825521 0.750000
vt 0.825521 0.750000
vt 0.825521 0.750000
vt 0.825521 0.750000
vt 0.825521 0.750000
vt 0.825521 0.750000
vt 0.825521 0.750000
vt 0.825521 0.750000
vt 0.825521 0.750000
vt 0.825521 0.750000
vt 0.825521 0.750000
vt 0.825521 0.750000
vt 0.825521 0.750000
vt 0.825521 0.750000
vt 0.825521 0.750000
vt 0.825521 0.750000
vt 0.825521 0.750000
vt 0.825521 0.750000
vt 0.825521 0.750000
vt 0.825521 0.750000
vt 0.825521 0.750000
vt 0.825521 0.750000
vt 0.825521 0.750000
vt 0.825521 0.750000
vt 0.825521 0.750000
vt 0.825521 0.750000
vt 0.825521 0.750000
vt 0.825521 0.750000
vt 0.825521 0.750000
vt 0.825521 0.750000
vt 0.825521 0.750000
vt 0.825521 0.750000
vt 0.825521 0.750000
vt 0.825521 0.750000
vt 0.825521 0.750000
vt 0.825521 0.750000
vt 0.825521 0.750000
vt 0.825521 0.750000
vt 0.825521 0.750000
vt 0.825521 0.750000
vt 0.825521 0.750000
vt 0.825521 0.750000
vt 0.825521 0.750000
vt 0.825521 0.750000
vt 0.825521 0.750000
vt 0.825521 0.750000
vt 0.825521 0.750000
vt 0.825521 0.750000
vt 0.825521 0.750000
vt 0.825521 0.750000
vt 0.825521 0.750000
vt 0.825521 0.750000
vt 0.825521 0.750000
vt 0.825521 0.750000
vt 0.825521 0.750000
vt 0.825521 0.750000
vt 0.825521 0.750000
vt 0.825521 0.750000
vt 0.825521 0.750000
vt 0.825521 0.750000
vt 0.825521 0.750000
vt 0.825521 0.750000
vt 0.825521 0.750000
vt 0.825521 0.750000
vt 0.825521 0.750000
vt 0.825521 0.750000
vt 0.825521 0.750000
vt 0.825521 0.750000
vt 0.825521 0.750000
vt 0.825521 0.750000
vt 0.825521 0.750000
vt 0.825521 0.750000
vt 0.825521 0.750000
vt 0.825521 0.750000
vt 0.825521 0.750000
vt 0.825521 0.750000
vt 0.825521 0.750000
vt 0.825521 0.750000
vt 0.825521 0.750000
vt 0.825521 0.750000
vt 0.825521 0.750000
vt 0.825521 0.750000
vt 0.825521 0.750000
vt 0.825521 0.750000
vt 0.825521 0.750000
vt 0.825521 0.750000
vt 0.825521 0.750000
vt 0.825521 0.750000
vt 0.825521 0.750000
vt 0.825521 0.750000
vt 0.825521 0.750000
vt 0.825521 0.750000
vt 0.825521 0.750000
vt 0.825521 0.750000
vt 0.825521 0.750000
vt 0.825521 0.750000
vt 0.825521 0.750000
vt 0.825521 0.750000
vt 0.825521 0.750000
vt 0.825521 0.750000
vt 0.825521 0.750000
vt 0.825521 0.750000
vt 0.825521 0.750000
vt 0.825521 0.750000
vt 0.825521 0.750000
vt 0.825521 0.750000
vt 0.825521 0.750000
vt 0.825521 0.750000
vt 0.825521 0.750000
vt 0.825521 0.750000
vt 0.825521 0.750000
vt 0.825521 0.750000
vt 0.825521 0.750000
vt 0.825521 0.750000
vt 0.825521 0.750000
vt 0.825521 0.750000
vt 0.825521 0.750000
vt 0.825521 0.750000
vt 0.825521 0.750000
vt 0.825521 0.750000
vt 0.825521 0.750000
vt 0.825521 0.750000
vt 0.825521 0.750000
vt 0.825521 0.750000
vt 0.825521 0.750000
vt 0.825521 0.750000
vt 0.825521 0.750000
vt 0.825521 0.750000
vn 0.6204 -0.2615 0.7394
vn -0.9505 -0.2615 0.1676
vn 0.9505 -0.2615 0.1676
vn -0.6204 -0.2615 0.7394
vn -0.3301 -0.2615 -0.9070
vn 0.8359 -0.2615 -0.4826
vn 0.0000 -0.2615 0.9652
vn -0.8359 -0.2615 -0.4826
vn 0.3301 -0.2615 -0.9070
vn 0.9814 0.0825 0.1731
vn -0.6406 0.0825 0.7634
vn -0.3409 0.0825 -0.9365
vn 0.8631 0.0825 -0.4983
vn 0.0000 0.0825 0.9966
vn -0.8631 0.0825 -0.4983
vn 0.3409 0.0825 -0.9365
vn 0.6406 0.0825 0.7634
vn -0.9814 0.0825 0.1731
vn 0.2762 -0.9030 0.3291
vn -0.4231 -0.9030 0.0746
vn 0.4231 -0.9030 0.0746
vn -0.2762 -0.9030 0.3291
vn -0.1470 -0.9030 -0.4037
vn 0.3721 -0.9030 -0.2148
vn 0.0000 -0.9030 0.4297
vn -0.3721 -0.9030 -0.2148
vn 0.1470 -0.9030 -0.4037
vn 0.1470 0.9030 -0.4037
vn -0.3721 0.9030 -0.2148
vn 0.0000 0.9030 0.4297
vn 0.3721 0.9030 -0.2148
vn -0.1470 0.9030 -0.4037
vn -0.2762 0.9030 0.3291
vn 0.4231 0.9030 0.0746
vn -0.4231 0.9030 0.0746
vn 0.2762 0.9030 0.3291
vn 0.0000 0.3457 0.9384
vn -0.8126 0.3457 -0.4692
vn 0.3209 0.3457 -0.8818
vn 0.6032 0.3457 0.7188
vn -0.9241 0.3457 0.1629
vn 0.9241 0.3457 0.1629
vn -0.6032 0.3457 0.7188
vn -0.3209 0.3457 -0.8818
vn 0.8126 0.3457 -0.4692
vn -0.5937 0.7978 0.1047
vn 0.5937 0.7978 0.1047
vn -0.3875 0.7978 0.4619
vn -0.2062 0.7978 -0.5665
vn 0.5221 0.7978 -0.3015
vn 0.0000 0.7978 0.6029
vn -0.5221 0.7978 -0.3015
vn 0.2062 0.7978 -0.5665
vn 0.3875 0.7978 0.4619
vn -0.8658 0.0209 -0.4999
vn 0.3419 0.0209 -0.9395
vn 0.6426 0.0209 0.7659
vn -0.9846 0.0209 0.1736
vn 0.9846 0.0209 0.1736
vn -0.6426 0.0209 0.7659
vn -0.3419 0.0209 -0.9395
vn 0.8658 0.0209 -0.4999
vn 0.0000 0.0209 0.9998
vn -0.1958 0.8198 -0.5381
vn 0.4959 0.8198 -0.2863
vn -0.0000 0.8198 0.5726
vn -0.4959 0.8198 -0.2863
vn 0.1958 0.8198 -0.5381
vn 0.3681 0.8198 0.4386
vn -0.5639 0.8198 0.0994
vn 0.5639 0.8198 0.0994
vn -0.3681 0.8198 0.4386
vn 0.9684 0.1820 0.1707
vn -0.6321 0.1820 0.7533
vn -0.3363 0.1820 -0.9240
vn 0.8516 0.1820 -0.4917
vn 0.0000 0.1820 0.9833
vn -0.8516 0.1820 -0.4917
vn 0.3363 0.1820 -0.9240
vn 0.6321 0.1820 0.7533
vn -0.9684 0.1820 0.1707
vn -0.3130 -0.8734 0.3731
vn -0.6406 0.0819 0.7635
vn 0.4796 -0.8734 0.0846
vn 0.9815 0.0819 0.1731
vn -0.4796 -0.8734 0.0846
vn -0.9815 0.0819 0.1731
vn 0.3130 -0.8734 0.3731
vn 0.6406 0.0819 0.7635
vn 0.1666 -0.8734 -0.4576
vn 0.3409 0.0819 -0.9365
vn -0.4218 -0.8734 -0.2435
vn -0.8631 0.0819 -0.4983
vn 0.0000 -0.8734 0.4870
vn -0.0000 0.0819 0.9966
vn 0.4218 -0.8734 -0.2435
vn 0.8631 0.0819 -0.4983
vn -0.1666 -0.8734 -0.4576
vn -0.3409 0.0819 -0.9365
vn 0.1876 -0.7947 0.5774
vn 0.6071 -0.7947 0.0000
vn -0.4911 -0.7947 0.3568
vn -0.4911 -0.7947 -0.3568
vn 0.1876 -0.7947 -0.5774
vn 0.9822 -0.1876 0.0000
vn 0.3035 -0.1876 0.9342
vn -0.7946 -0.1876 0.5774
vn -0.7946 -0.1876 -0.5774
vn 0.3035 -0.1876 -0.9342
vn 0.7946 0.1876 0.5774
vn -0.3035 0.1876 0.9342
vn -0.9822 0.1876 0.0000
vn -0.3035 0.1876 -0.9342
vn 0.7946 0.1876 -0.5774
vn 0.4911 0.7947 0.3568
vn -0.1876 0.7947 0.5774
vn -0.6071 0.7947 0.0000
vn -0.1876 0.7947 -0.5774
vn 0.4911 0.7947 -0.3568
vn 0.0000 -0.0227 0.9997
vn 0.8658 -0.0227 -0.4999
vn -0.3419 -0.0227 -0.9395
vn -0.6426 -0.0227 0.7658
vn 0.9846 -0.0227 0.1736
vn -0.9846 -0.0227 0.1736
vn 0.6426 -0.0227 0.7658
vn 0.3419 -0.0227 -0.9395
vn -0.8658 -0.0227 -0.4999
vn 0.0000 0.9621 0.2728
vn 0.2362 0.9621 -0.1364
vn -0.0933 0.9621 -0.2563
vn -0.1753 0.9621 0.2090
vn 0.2686 0.9621 0.0474
vn -0.2686 0.9621 0.0474
vn 0.1753 0.9621 0.2090
vn 0.0933 0.9621 -0.2563
vn -0.2362 0.9621 -0.1364
vn 0.0000 -1.0000 0.0000
usemtl Chess
s off
f 7/1/1 16/2/1 15/3/1 6/4/1
f 4/5/2 13/6/2 12/7/2 3/8/2
f 8/9/3 17/10/3 16/2/3 7/1/3
f 5/11/4 14/12/4 13/6/4 4/5/4
f 2/13/5 11/14/5 10/15/5 1/16/5
f 9/17/6 18/18/6 17/10/6 8/9/6
f 6/4/7 15/3/7 14/12/7 5/11/7
f 3/8/8 12/7/8 11/14/8 2/13/8
f 1/16/9 10/15/9 18/18/9 9/17/9
f 17/10/10 26/19/10 25/20/10 16/2/10
f 14/12/11 23/21/11 22/22/11 13/6/11
f 11/14/12 20/23/12 19/24/12 10/15/12
f 18/18/13 27/25/13 26/19/13 17/10/13
f 15/3/14 24/26/14 23/21/14 14/12/14
f 12/7/15 21/27/15 20/23/15 11/14/15
f 10/15/16 19/24/16 27/25/16 18/18/16
f 16/2/17 25/20/17 24/26/17 15/3/17
f 13/6/18 22/22/18 21/27/18 12/7/18
f 38/28/19 34/29/19 33/30/19 37/31/19
f 40/32/20 31/33/20 30/34/20 39/35/20
f 41/36/21 35/37/21 34/29/21 38/28/21
f 42/38/22 32/39/22 31/33/22 40/32/22
f 44/40/23 29/41/23 28/42/23 43/43/23
f 45/44/24 36/45/24 35/37/24 41/36/24
f 37/31/25 33/30/25 32/39/25 42/38/25
f 39/35/26 30/34/26 29/41/26 44/40/26
f 43/43/27 28/42/27 36/45/27 45/44/27
f 19/24/28 43/43/28 45/44/28 27/25/28
f 21/27/29 39/35/29 44/40/29 20/23/29
f 24/26/30 37/31/30 42/38/30 23/21/30
f 27/25/31 45/44/31 41/36/31 26/19/31
f 20/23/32 44/40/32 43/43/32 19/24/32
f 23/21/33 42/38/33 40/32/33 22/22/33
f 26/19/34 41/36/34 38/28/34 25/20/34
f 22/22/35 40/32/35 39/35/35 21/27/35
f 25/20/36 38/28/36 37/31/36 24/26/36
f 33/30/37 51/46/37 50/47/37 32/39/37
f 30/34/38 48/48/38 47/49/38 29/41/38
f 28/42/39 46/50/39 54/51/39 36/45/39
f 34/29/40 52/52/40 51/46/40 33/30/40
f 31/33/41 49/53/41 48/48/41 30/34/41
f 35/37/42 53/54/42 52/52/42 34/29/42
f 32/39/43 50/47/43 49/53/43 31/33/43
f 29/41/44 47/49/44 46/50/44 28/42/44
f 36/45/45 54/51/45 53/54/45 35/37/45
f 49/53/46 58/55/46 57/56/46 48/48/46
f 53/54/47 62/57/47 61/58/47 52/52/47
f 50/47/48 59/59/48 58/55/48 49/53/48
f 47/49/49 56/60/49 55/61/49 46/50/49
f 54/51/50 63/62/50 62/57/50 53/54/50
f 51/46/51 60/63/51 59/59/51 50/47/51
f 48/48/52 57/56/52 56/60/52 47/49/52
f 46/50/53 55/61/53 63/62/53 54/51/53
f 52/52/54 61/58/54 60/63/54 51/46/54
f 133/64/55 66/65/55 65/66/55 130/67/55
f 134/68/56 64/69/56 72/70/56 131/71/56
f 135/72/57 70/73/57 69/74/57 132/75/57
f 136/76/58 67/77/58 66/65/58 133/64/58
f 137/78/59 71/79/59 70/73/59 135/72/59
f 138/80/60 68/81/60 67/77/60 136/76/60
f 130/67/61 65/66/61 64/69/61 134/68/61
f 131/71/62 72/70/62 71/79/62 137/78/62
f 132/75/63 69/74/63 68/81/63 138/80/63
f 93/82/64 74/83/64 73/84/64 92/85/64
f 97/86/65 81/87/65 80/88/65 96/89/65
f 101/90/66 78/91/66 77/92/66 100/93/66
f 103/94/67 75/95/67 74/83/67 93/82/67
f 92/85/68 73/84/68 81/87/68 97/86/68
f 105/96/69 79/97/69 78/91/69 101/90/69
f 107/98/70 76/99/70 75/95/70 103/94/70
f 96/89/71 80/88/71 79/97/71 105/96/71
f 100/93/72 77/92/72 76/99/72 107/98/72
f 80/88/73 89/100/73 88/101/73 79/97/73
f 77/92/74 86/102/74 85/103/74 76/99/74
f 74/83/75 83/104/75 82/105/75 73/84/75
f 81/87/76 90/106/76 89/100/76 80/88/76
f 78/91/77 87/107/77 86/102/77 77/92/77
f 75/95/78 84/108/78 83/104/78 74/83/78
f 73/84/79 82/105/79 90/106/79 81/87/79
f 79/97/80 88/101/80 87/107/80 78/91/80
f 76/99/81 85/103/81 84/108/81 75/95/81
f 68/81/82 99/109/82 108/110/82 67/77/82
f 99/109/83 100/93/83 107/98/83 108/110/83
f 71/79/84 95/111/84 106/112/84 70/73/84
f 95/111/85 96/89/85 105/96/85 106/112/85
f 67/77/86 108/110/86 104/113/86 66/65/86
f 108/110/87 107/98/87 103/94/87 104/113/87
f 70/73/88 106/112/88 102/114/88 69/74/88
f 106/112/89 105/96/89 101/90/89 102/114/89
f 64/69/90 91/115/90 98/116/90 72/70/90
f 91/115/91 92/85/91 97/86/91 98/116/91
f 66/65/92 104/113/92 94/117/92 65/66/92
f 104/113/93 103/94/93 93/82/93 94/117/93
f 69/74/94 102/114/94 99/109/94 68/81/94
f 102/114/95 101/90/95 100/93/95 99/109/95
f 72/70/96 98/116/96 95/111/96 71/79/96
f 98/116/97 97/86/97 96/89/97 95/111/97
f 65/66/98 94/117/98 91/115/98 64/69/98
f 94/117/99 93/82/99 92/85/99 91/115/99
f 109/118/100 110/119/100 111/120/100
f 110/119/101 109/118/101 114/121/101
f 109/118/102 111/120/102 112/122/102
f 109/118/103 112/122/103 113/123/103
f 109/118/104 113/123/104 114/121/104
f 110/119/105 114/121/105 119/124/105
f 111/120/106 110/119/106 115/125/106
f 112/122/107 111/120/107 116/126/107
f 113/123/108 112/122/108 117/127/108
f 114/121/109 113/123/109 118/128/109
f 110/119/110 119/124/110 115/125/110
f 111/120/111 115/125/111 116/126/111
f 112/122/112 116/126/112 117/127/112
f 113/123/113 117/127/113 118/128/113
f 114/121/114 118/128/114 119/124/114
f 115/125/115 119/124/115 120/129/115
f 116/126/116 115/125/116 120/129/116
f 117/127/117 116/126/117 120/129/117
f 118/128/118 117/127/118 120/129/118
f 119/124/119 118/128/119 120/129/119
f 60/63/120 125/130/120 129/131/120 59/59/120
f 63/62/121 123/132/121 128/133/121 62/57/121
f 56/60/122 121/134/122 124/135/122 55/61/122
f 59/59/123 129/131/123 127/136/123 58/55/123
f 62/57/124 128/133/124 126/137/124 61/58/124
f 58/55/125 127/136/125 122/138/125 57/56/125
f 61/58/126 126/137/126 125/130/126 60/63/126
f 55/61/127 124/135/127 123/132/127 63/62/127
f 57/56/128 122/138/128 121/134/128 56/60/128
f 125/130/129 132/75/129 138/80/129 129/131/129
f 123/132/130 131/71/130 137/78/130 128/133/130
f 121/134/131 130/67/131 134/68/131 124/135/131
f 129/131/132 138/80/132 136/76/132 127/136/132
f 128/133/133 137/78/133 135/72/133 126/137/133
f 127/136/134 136/76/134 133/64/134 122/138/134
f 126/137/135 135/72/135 132/75/135 125/130/135
f 124/135/136 134/68/136 131/71/136 123/132/136
f 122/138/137 133/64/137 130/67/137 121/134/137
f 2/13/138 1/16/138 9/17/138 8/9/138 7/1/138 6/4/138 5/11/138 4/5/138 3/8/138
